<svg width="17" height="17" viewBox="0 0 17 17" fill="none" xmlns="http://www.w3.org/2000/svg">
<path fill-rule="evenodd" clip-rule="evenodd" d="M1.66663 4.5C1.66663 3.94772 2.11434 3.5 2.66663 3.5H14.6666C15.2189 3.5 15.6666 3.94772 15.6666 4.5V12.5C15.6666 13.0523 15.2189 13.5 14.6666 13.5H2.66663C2.11434 13.5 1.66663 13.0523 1.66663 12.5V4.5ZM14.6666 4.5H2.66663V12.5H14.6666V4.5Z" fill="currentColor"/>
<path fill-rule="evenodd" clip-rule="evenodd" d="M10.6666 11C10.6666 10.7239 10.8905 10.5 11.1666 10.5H13.1666C13.4428 10.5 13.6666 10.7239 13.6666 11C13.6666 11.2761 13.4428 11.5 13.1666 11.5H11.1666C10.8905 11.5 10.6666 11.2761 10.6666 11Z" fill="currentColor"/>
<path fill-rule="evenodd" clip-rule="evenodd" d="M7.66663 11C7.66663 10.7239 7.89048 10.5 8.16663 10.5H9.16663C9.44277 10.5 9.66663 10.7239 9.66663 11C9.66663 11.2761 9.44277 11.5 9.16663 11.5H8.16663C7.89048 11.5 7.66663 11.2761 7.66663 11Z" fill="currentColor"/>
<path fill-rule="evenodd" clip-rule="evenodd" d="M1.66663 6.55627C1.66663 6.28013 1.89048 6.05627 2.16663 6.05627H15.1666C15.4428 6.05627 15.6666 6.28013 15.6666 6.55627C15.6666 6.83242 15.4428 7.05627 15.1666 7.05627H2.16663C1.89048 7.05627 1.66663 6.83242 1.66663 6.55627Z" fill="currentColor"/>
</svg>
